<mxfile host="Electron" modified="2023-05-23T01:18:28.591Z" agent="Mozilla/5.0 (Windows NT 10.0; Win64; x64) AppleWebKit/537.36 (KHTML, like Gecko) draw.io/21.2.8 Chrome/112.0.5615.165 Electron/24.2.0 Safari/537.36" etag="pN-ZFX-NTFo_fzYdm-_n" version="21.2.8" type="device">
  <diagram name="Page-1" id="2YBvvXClWsGukQMizWep">
    <mxGraphModel dx="410" dy="1161" grid="1" gridSize="10" guides="1" tooltips="1" connect="1" arrows="1" fold="1" page="1" pageScale="1" pageWidth="850" pageHeight="1100" math="0" shadow="0">
      <root>
        <mxCell id="0" />
        <mxCell id="1" parent="0" />
        <mxCell id="iyyLop5UdPf2UzQYBVcK-100" value="" style="shape=image;verticalLabelPosition=bottom;labelBackgroundColor=default;verticalAlign=top;aspect=fixed;imageAspect=0;image=data:image/png,iVBORw0KGgoAAAANSUhEUgAAAIYAAABSCAYAAACR1qyoAAAAAXNSR0IArs4c6QAAAARnQU1BAACxjwv8YQUAAAAJcEhZcwAAEnQAABJ0Ad5mH3gAAAIhSURBVHhe7dzhboMgGEZh3f3f8yZJWRx5FWyB73WeJ1n2T2m/UzBLs/V7swCFr9dv4A/CgEQYkAgDEmFAIgxIhAGJMCARBiTCgEQYkAgDEmFAIgxIhAGJMCARBiSbMNZ1/f1BPIswyhiIIx5HCSTCgGTxLXF1dNzty+utx99dXhdhvKnXc5Dr6+QouSgF0SuKpPf1eiGMRqMH6BYIYTSYOTCXQHjGOHF1QLU1977eSIRxoGWIn65xxj3exVEi1AaWhtVjYC3XubrL9EIYhZYoeqsFEhEHYeycDaDl0/0ppzgIo8HoIPZc4iCMl6M3fWYUWcQ9S4SxcYoiO7r3rF2DMCA9PgzH3SKL3DXYMQSHKLKotRAGJNs/iUdy2jGSiOOOHaPgFkUSsSbCgEQYkAgD0qO/jxF133fMXis7BiTCgEQYBbe/qSQRa3p0GK7PEy1Gr50dAxJhCE7HSdRaHh/G0Zbs+KyRzTgC2TGMRcZJGBvHXePo3rMemAmjIiIOh2OMMF7OPokzB3V2r1m7RUIYO9FxuESREEahFseIQGrXnR1FQhhCbRC9Amm5TkQUCf8G4cSV4beud8Q1RyCMiiuD7Cn69XOUVKQBzRzS7PsdIYxGowfmEkRGGBf1HqBbEBnPGJ20Povc5XVZhJHs39i7RfEf2YQBLzxjQCIMSIQBiTAgEQYkwoBEGJAIAxJhQCIMSIQBiTAgEQYkwoBEGBCW5QeGVwV+A7K4/QAAAABJRU5ErkJggg==;" vertex="1" parent="1">
          <mxGeometry x="749.38" y="1190" width="70" height="42.84" as="geometry" />
        </mxCell>
        <mxCell id="iyyLop5UdPf2UzQYBVcK-38" value="" style="rounded=0;whiteSpace=wrap;html=1;fillColor=#dae8fc;strokeColor=#6c8ebf;movable=1;resizable=1;rotatable=1;deletable=1;editable=1;locked=0;connectable=1;" vertex="1" parent="1">
          <mxGeometry x="900" y="1020" width="1860" height="210" as="geometry" />
        </mxCell>
        <mxCell id="WgwIK_NGnkUSYbMtnqCj-48" value="" style="rounded=0;whiteSpace=wrap;html=1;fillColor=#dae8fc;strokeColor=#6c8ebf;movable=1;resizable=1;rotatable=1;deletable=1;editable=1;locked=0;connectable=1;" parent="1" vertex="1">
          <mxGeometry x="490" y="470" width="900" height="180" as="geometry" />
        </mxCell>
        <mxCell id="aM9ryv3xv72pqoxQDRHE-5" value=":PantallaConsultarEncuesta" style="shape=umlLifeline;perimeter=lifelinePerimeter;whiteSpace=wrap;html=1;container=0;dropTarget=0;collapsible=0;recursiveResize=0;outlineConnect=0;portConstraint=eastwest;newEdgeStyle={&quot;edgeStyle&quot;:&quot;elbowEdgeStyle&quot;,&quot;elbow&quot;:&quot;vertical&quot;,&quot;curved&quot;:0,&quot;rounded&quot;:0};movable=1;resizable=1;rotatable=1;deletable=1;editable=1;locked=0;connectable=1;" parent="1" vertex="1">
          <mxGeometry x="200" y="90" width="170" height="1230" as="geometry" />
        </mxCell>
        <mxCell id="aM9ryv3xv72pqoxQDRHE-6" value="" style="html=1;points=[];perimeter=orthogonalPerimeter;outlineConnect=0;targetShapes=umlLifeline;portConstraint=eastwest;newEdgeStyle={&quot;edgeStyle&quot;:&quot;elbowEdgeStyle&quot;,&quot;elbow&quot;:&quot;vertical&quot;,&quot;curved&quot;:0,&quot;rounded&quot;:0};movable=0;resizable=0;rotatable=0;deletable=0;editable=0;locked=1;connectable=0;" parent="aM9ryv3xv72pqoxQDRHE-5" vertex="1">
          <mxGeometry x="80" y="80" width="10" height="120" as="geometry" />
        </mxCell>
        <mxCell id="WgwIK_NGnkUSYbMtnqCj-21" value="" style="html=1;points=[];perimeter=orthogonalPerimeter;outlineConnect=0;targetShapes=umlLifeline;portConstraint=eastwest;newEdgeStyle={&quot;edgeStyle&quot;:&quot;elbowEdgeStyle&quot;,&quot;elbow&quot;:&quot;vertical&quot;,&quot;curved&quot;:0,&quot;rounded&quot;:0};movable=0;resizable=0;rotatable=0;deletable=0;editable=0;locked=1;connectable=0;" parent="aM9ryv3xv72pqoxQDRHE-5" vertex="1">
          <mxGeometry x="84" y="90" width="10" height="30" as="geometry" />
        </mxCell>
        <mxCell id="WgwIK_NGnkUSYbMtnqCj-22" style="edgeStyle=elbowEdgeStyle;rounded=0;orthogonalLoop=1;jettySize=auto;html=1;elbow=vertical;curved=0;movable=0;resizable=0;rotatable=0;deletable=0;editable=0;locked=1;connectable=0;" parent="aM9ryv3xv72pqoxQDRHE-5" source="WgwIK_NGnkUSYbMtnqCj-21" target="WgwIK_NGnkUSYbMtnqCj-21" edge="1">
          <mxGeometry relative="1" as="geometry" />
        </mxCell>
        <mxCell id="WgwIK_NGnkUSYbMtnqCj-26" value="" style="html=1;points=[];perimeter=orthogonalPerimeter;outlineConnect=0;targetShapes=umlLifeline;portConstraint=eastwest;newEdgeStyle={&quot;edgeStyle&quot;:&quot;elbowEdgeStyle&quot;,&quot;elbow&quot;:&quot;vertical&quot;,&quot;curved&quot;:0,&quot;rounded&quot;:0};movable=0;resizable=0;rotatable=0;deletable=0;editable=0;locked=1;connectable=0;" parent="aM9ryv3xv72pqoxQDRHE-5" vertex="1">
          <mxGeometry x="84" y="170" width="10" height="30" as="geometry" />
        </mxCell>
        <mxCell id="WgwIK_NGnkUSYbMtnqCj-35" value="" style="html=1;points=[];perimeter=orthogonalPerimeter;outlineConnect=0;targetShapes=umlLifeline;portConstraint=eastwest;newEdgeStyle={&quot;edgeStyle&quot;:&quot;elbowEdgeStyle&quot;,&quot;elbow&quot;:&quot;vertical&quot;,&quot;curved&quot;:0,&quot;rounded&quot;:0};" parent="aM9ryv3xv72pqoxQDRHE-5" vertex="1">
          <mxGeometry x="80" y="260" width="10" height="70" as="geometry" />
        </mxCell>
        <mxCell id="WgwIK_NGnkUSYbMtnqCj-114" value="" style="html=1;points=[];perimeter=orthogonalPerimeter;outlineConnect=0;targetShapes=umlLifeline;portConstraint=eastwest;newEdgeStyle={&quot;edgeStyle&quot;:&quot;elbowEdgeStyle&quot;,&quot;elbow&quot;:&quot;vertical&quot;,&quot;curved&quot;:0,&quot;rounded&quot;:0};" parent="aM9ryv3xv72pqoxQDRHE-5" vertex="1">
          <mxGeometry x="80" y="570" width="10" height="30" as="geometry" />
        </mxCell>
        <mxCell id="WgwIK_NGnkUSYbMtnqCj-117" value="" style="html=1;points=[];perimeter=orthogonalPerimeter;outlineConnect=0;targetShapes=umlLifeline;portConstraint=eastwest;newEdgeStyle={&quot;edgeStyle&quot;:&quot;elbowEdgeStyle&quot;,&quot;elbow&quot;:&quot;vertical&quot;,&quot;curved&quot;:0,&quot;rounded&quot;:0};" parent="aM9ryv3xv72pqoxQDRHE-5" vertex="1">
          <mxGeometry x="80" y="620" width="10" height="30" as="geometry" />
        </mxCell>
        <mxCell id="iyyLop5UdPf2UzQYBVcK-59" value="" style="html=1;points=[];perimeter=orthogonalPerimeter;outlineConnect=0;targetShapes=umlLifeline;portConstraint=eastwest;newEdgeStyle={&quot;edgeStyle&quot;:&quot;elbowEdgeStyle&quot;,&quot;elbow&quot;:&quot;vertical&quot;,&quot;curved&quot;:0,&quot;rounded&quot;:0};" vertex="1" parent="aM9ryv3xv72pqoxQDRHE-5">
          <mxGeometry x="80" y="950" width="10" height="30" as="geometry" />
        </mxCell>
        <mxCell id="iyyLop5UdPf2UzQYBVcK-63" value="" style="html=1;points=[];perimeter=orthogonalPerimeter;outlineConnect=0;targetShapes=umlLifeline;portConstraint=eastwest;newEdgeStyle={&quot;edgeStyle&quot;:&quot;elbowEdgeStyle&quot;,&quot;elbow&quot;:&quot;vertical&quot;,&quot;curved&quot;:0,&quot;rounded&quot;:0};" vertex="1" parent="aM9ryv3xv72pqoxQDRHE-5">
          <mxGeometry x="80" y="1030" width="10" height="30" as="geometry" />
        </mxCell>
        <mxCell id="iyyLop5UdPf2UzQYBVcK-67" value="" style="html=1;points=[];perimeter=orthogonalPerimeter;outlineConnect=0;targetShapes=umlLifeline;portConstraint=eastwest;newEdgeStyle={&quot;edgeStyle&quot;:&quot;elbowEdgeStyle&quot;,&quot;elbow&quot;:&quot;vertical&quot;,&quot;curved&quot;:0,&quot;rounded&quot;:0};" vertex="1" parent="aM9ryv3xv72pqoxQDRHE-5">
          <mxGeometry x="80" y="1090" width="10" height="30" as="geometry" />
        </mxCell>
        <mxCell id="WgwIK_NGnkUSYbMtnqCj-1" value="" style="shape=umlActor;verticalLabelPosition=bottom;verticalAlign=top;html=1;outlineConnect=0;movable=0;resizable=0;rotatable=0;deletable=0;editable=0;locked=1;connectable=0;" parent="1" vertex="1">
          <mxGeometry x="72.5" y="20" width="35" height="60" as="geometry" />
        </mxCell>
        <mxCell id="WgwIK_NGnkUSYbMtnqCj-6" value=":Coordinador" style="text;html=1;strokeColor=none;fillColor=none;align=center;verticalAlign=middle;whiteSpace=wrap;rounded=0;movable=0;resizable=0;rotatable=0;deletable=0;editable=0;locked=1;connectable=0;" parent="1" vertex="1">
          <mxGeometry x="60" y="90" width="60" height="30" as="geometry" />
        </mxCell>
        <mxCell id="WgwIK_NGnkUSYbMtnqCj-7" value="" style="endArrow=none;dashed=1;html=1;dashPattern=1 3;strokeWidth=2;rounded=0;entryX=0.5;entryY=1;entryDx=0;entryDy=0;movable=0;resizable=0;rotatable=0;deletable=0;editable=0;locked=1;connectable=0;" parent="1" source="WgwIK_NGnkUSYbMtnqCj-8" target="WgwIK_NGnkUSYbMtnqCj-6" edge="1">
          <mxGeometry width="50" height="50" relative="1" as="geometry">
            <mxPoint x="90" y="530" as="sourcePoint" />
            <mxPoint x="390" y="220" as="targetPoint" />
          </mxGeometry>
        </mxCell>
        <mxCell id="WgwIK_NGnkUSYbMtnqCj-9" value="" style="endArrow=none;dashed=1;html=1;dashPattern=1 3;strokeWidth=2;rounded=0;entryX=0.5;entryY=1;entryDx=0;entryDy=0;" parent="1" target="WgwIK_NGnkUSYbMtnqCj-8" edge="1">
          <mxGeometry width="50" height="50" relative="1" as="geometry">
            <mxPoint x="90" y="1320" as="sourcePoint" />
            <mxPoint x="90" y="120" as="targetPoint" />
            <Array as="points">
              <mxPoint x="90" y="520" />
            </Array>
          </mxGeometry>
        </mxCell>
        <mxCell id="WgwIK_NGnkUSYbMtnqCj-36" style="edgeStyle=elbowEdgeStyle;rounded=0;orthogonalLoop=1;jettySize=auto;html=1;elbow=vertical;curved=0;movable=0;resizable=0;rotatable=0;deletable=0;editable=0;locked=1;connectable=0;" parent="1" source="WgwIK_NGnkUSYbMtnqCj-8" target="WgwIK_NGnkUSYbMtnqCj-35" edge="1">
          <mxGeometry relative="1" as="geometry">
            <Array as="points">
              <mxPoint x="240" y="350" />
            </Array>
          </mxGeometry>
        </mxCell>
        <mxCell id="WgwIK_NGnkUSYbMtnqCj-118" style="edgeStyle=elbowEdgeStyle;rounded=0;orthogonalLoop=1;jettySize=auto;html=1;elbow=vertical;curved=0;" parent="1" source="WgwIK_NGnkUSYbMtnqCj-8" target="WgwIK_NGnkUSYbMtnqCj-117" edge="1">
          <mxGeometry relative="1" as="geometry">
            <Array as="points">
              <mxPoint x="240" y="710" />
            </Array>
          </mxGeometry>
        </mxCell>
        <mxCell id="iyyLop5UdPf2UzQYBVcK-68" style="edgeStyle=elbowEdgeStyle;rounded=0;orthogonalLoop=1;jettySize=auto;html=1;elbow=vertical;curved=0;" edge="1" parent="1" source="WgwIK_NGnkUSYbMtnqCj-8" target="iyyLop5UdPf2UzQYBVcK-67">
          <mxGeometry relative="1" as="geometry">
            <Array as="points">
              <mxPoint x="250" y="1180" />
            </Array>
          </mxGeometry>
        </mxCell>
        <mxCell id="WgwIK_NGnkUSYbMtnqCj-8" value="" style="html=1;points=[];perimeter=orthogonalPerimeter;outlineConnect=0;targetShapes=umlLifeline;portConstraint=eastwest;newEdgeStyle={&quot;edgeStyle&quot;:&quot;elbowEdgeStyle&quot;,&quot;elbow&quot;:&quot;vertical&quot;,&quot;curved&quot;:0,&quot;rounded&quot;:0};" parent="1" vertex="1">
          <mxGeometry x="85" y="140" width="10" height="1160" as="geometry" />
        </mxCell>
        <mxCell id="WgwIK_NGnkUSYbMtnqCj-10" value="" style="endArrow=classic;html=1;rounded=0;movable=0;resizable=0;rotatable=0;deletable=0;editable=0;locked=1;connectable=0;" parent="1" source="WgwIK_NGnkUSYbMtnqCj-8" target="aM9ryv3xv72pqoxQDRHE-6" edge="1">
          <mxGeometry width="50" height="50" relative="1" as="geometry">
            <mxPoint x="190" y="220" as="sourcePoint" />
            <mxPoint x="240" y="170" as="targetPoint" />
            <Array as="points">
              <mxPoint x="240" y="170" />
            </Array>
          </mxGeometry>
        </mxCell>
        <mxCell id="WgwIK_NGnkUSYbMtnqCj-11" value="opcionConsultarEncuesta()" style="text;html=1;strokeColor=none;fillColor=none;align=center;verticalAlign=middle;whiteSpace=wrap;rounded=0;movable=0;resizable=0;rotatable=0;deletable=0;editable=0;locked=1;connectable=0;" parent="1" vertex="1">
          <mxGeometry x="140" y="150" width="60" height="30" as="geometry" />
        </mxCell>
        <mxCell id="WgwIK_NGnkUSYbMtnqCj-12" value=":GestorConusltarEncuesta" style="shape=umlLifeline;perimeter=lifelinePerimeter;whiteSpace=wrap;html=1;container=0;dropTarget=0;collapsible=0;recursiveResize=0;outlineConnect=0;portConstraint=eastwest;newEdgeStyle={&quot;edgeStyle&quot;:&quot;elbowEdgeStyle&quot;,&quot;elbow&quot;:&quot;vertical&quot;,&quot;curved&quot;:0,&quot;rounded&quot;:0};" parent="1" vertex="1">
          <mxGeometry x="425" y="90" width="170" height="1240" as="geometry" />
        </mxCell>
        <mxCell id="WgwIK_NGnkUSYbMtnqCj-13" value="" style="html=1;points=[];perimeter=orthogonalPerimeter;outlineConnect=0;targetShapes=umlLifeline;portConstraint=eastwest;newEdgeStyle={&quot;edgeStyle&quot;:&quot;elbowEdgeStyle&quot;,&quot;elbow&quot;:&quot;vertical&quot;,&quot;curved&quot;:0,&quot;rounded&quot;:0};movable=0;resizable=0;rotatable=0;deletable=0;editable=0;locked=1;connectable=0;" parent="WgwIK_NGnkUSYbMtnqCj-12" vertex="1">
          <mxGeometry x="80" y="140" width="10" height="40" as="geometry" />
        </mxCell>
        <mxCell id="WgwIK_NGnkUSYbMtnqCj-67" value="" style="html=1;points=[];perimeter=orthogonalPerimeter;outlineConnect=0;targetShapes=umlLifeline;portConstraint=eastwest;newEdgeStyle={&quot;edgeStyle&quot;:&quot;elbowEdgeStyle&quot;,&quot;elbow&quot;:&quot;vertical&quot;,&quot;curved&quot;:0,&quot;rounded&quot;:0};" parent="WgwIK_NGnkUSYbMtnqCj-12" vertex="1">
          <mxGeometry x="80" y="330" width="10" height="250" as="geometry" />
        </mxCell>
        <mxCell id="WgwIK_NGnkUSYbMtnqCj-73" value="" style="html=1;points=[];perimeter=orthogonalPerimeter;outlineConnect=0;targetShapes=umlLifeline;portConstraint=eastwest;newEdgeStyle={&quot;edgeStyle&quot;:&quot;elbowEdgeStyle&quot;,&quot;elbow&quot;:&quot;vertical&quot;,&quot;curved&quot;:0,&quot;rounded&quot;:0};movable=0;resizable=0;rotatable=0;deletable=0;editable=0;locked=1;connectable=0;" parent="WgwIK_NGnkUSYbMtnqCj-12" vertex="1">
          <mxGeometry x="84" y="340" width="10" height="30" as="geometry" />
        </mxCell>
        <mxCell id="WgwIK_NGnkUSYbMtnqCj-75" style="edgeStyle=elbowEdgeStyle;rounded=0;orthogonalLoop=1;jettySize=auto;html=1;elbow=vertical;curved=0;movable=0;resizable=0;rotatable=0;deletable=0;editable=0;locked=1;connectable=0;" parent="WgwIK_NGnkUSYbMtnqCj-12" source="WgwIK_NGnkUSYbMtnqCj-73" target="WgwIK_NGnkUSYbMtnqCj-73" edge="1">
          <mxGeometry relative="1" as="geometry" />
        </mxCell>
        <mxCell id="WgwIK_NGnkUSYbMtnqCj-125" value="" style="html=1;points=[];perimeter=orthogonalPerimeter;outlineConnect=0;targetShapes=umlLifeline;portConstraint=eastwest;newEdgeStyle={&quot;edgeStyle&quot;:&quot;elbowEdgeStyle&quot;,&quot;elbow&quot;:&quot;vertical&quot;,&quot;curved&quot;:0,&quot;rounded&quot;:0};" parent="WgwIK_NGnkUSYbMtnqCj-12" vertex="1">
          <mxGeometry x="80" y="650" width="10" height="310" as="geometry" />
        </mxCell>
        <mxCell id="WgwIK_NGnkUSYbMtnqCj-129" value="" style="html=1;points=[];perimeter=orthogonalPerimeter;outlineConnect=0;targetShapes=umlLifeline;portConstraint=eastwest;newEdgeStyle={&quot;edgeStyle&quot;:&quot;elbowEdgeStyle&quot;,&quot;elbow&quot;:&quot;vertical&quot;,&quot;curved&quot;:0,&quot;rounded&quot;:0};movable=1;resizable=1;rotatable=1;deletable=1;editable=1;locked=0;connectable=1;" parent="WgwIK_NGnkUSYbMtnqCj-12" vertex="1">
          <mxGeometry x="84" y="660" width="10" height="280" as="geometry" />
        </mxCell>
        <mxCell id="iyyLop5UdPf2UzQYBVcK-62" value="" style="html=1;points=[];perimeter=orthogonalPerimeter;outlineConnect=0;targetShapes=umlLifeline;portConstraint=eastwest;newEdgeStyle={&quot;edgeStyle&quot;:&quot;elbowEdgeStyle&quot;,&quot;elbow&quot;:&quot;vertical&quot;,&quot;curved&quot;:0,&quot;rounded&quot;:0};" vertex="1" parent="WgwIK_NGnkUSYbMtnqCj-12">
          <mxGeometry x="80" y="1010" width="10" height="30" as="geometry" />
        </mxCell>
        <mxCell id="iyyLop5UdPf2UzQYBVcK-80" value="" style="endArrow=classic;html=1;rounded=0;" edge="1" parent="WgwIK_NGnkUSYbMtnqCj-12">
          <mxGeometry width="50" height="50" relative="1" as="geometry">
            <mxPoint x="90" y="1210" as="sourcePoint" />
            <mxPoint x="90" y="1220" as="targetPoint" />
            <Array as="points">
              <mxPoint x="110" y="1210" />
              <mxPoint x="110" y="1220" />
            </Array>
          </mxGeometry>
        </mxCell>
        <mxCell id="iyyLop5UdPf2UzQYBVcK-86" value="" style="endArrow=classic;html=1;rounded=0;" edge="1" parent="WgwIK_NGnkUSYbMtnqCj-12" source="WgwIK_NGnkUSYbMtnqCj-129" target="WgwIK_NGnkUSYbMtnqCj-129">
          <mxGeometry width="50" height="50" relative="1" as="geometry">
            <mxPoint x="195" y="650" as="sourcePoint" />
            <mxPoint x="245" y="600" as="targetPoint" />
            <Array as="points">
              <mxPoint x="115" y="670" />
              <mxPoint x="115" y="700" />
            </Array>
          </mxGeometry>
        </mxCell>
        <mxCell id="iyyLop5UdPf2UzQYBVcK-91" value="" style="html=1;points=[];perimeter=orthogonalPerimeter;outlineConnect=0;targetShapes=umlLifeline;portConstraint=eastwest;newEdgeStyle={&quot;edgeStyle&quot;:&quot;elbowEdgeStyle&quot;,&quot;elbow&quot;:&quot;vertical&quot;,&quot;curved&quot;:0,&quot;rounded&quot;:0};" vertex="1" parent="WgwIK_NGnkUSYbMtnqCj-12">
          <mxGeometry x="80" y="1120" width="10" height="30" as="geometry" />
        </mxCell>
        <mxCell id="iyyLop5UdPf2UzQYBVcK-99" value="" style="html=1;points=[];perimeter=orthogonalPerimeter;outlineConnect=0;targetShapes=umlLifeline;portConstraint=eastwest;newEdgeStyle={&quot;edgeStyle&quot;:&quot;elbowEdgeStyle&quot;,&quot;elbow&quot;:&quot;vertical&quot;,&quot;curved&quot;:0,&quot;rounded&quot;:0};" vertex="1" parent="WgwIK_NGnkUSYbMtnqCj-12">
          <mxGeometry x="80" y="1200" width="10" height="30" as="geometry" />
        </mxCell>
        <mxCell id="WgwIK_NGnkUSYbMtnqCj-23" value="habilitarPantalla()" style="text;html=1;strokeColor=none;fillColor=none;align=center;verticalAlign=middle;whiteSpace=wrap;rounded=0;movable=0;resizable=0;rotatable=0;deletable=0;editable=0;locked=1;connectable=0;" parent="1" vertex="1">
          <mxGeometry x="340" y="180" width="60" height="30" as="geometry" />
        </mxCell>
        <mxCell id="WgwIK_NGnkUSYbMtnqCj-24" style="edgeStyle=elbowEdgeStyle;rounded=0;orthogonalLoop=1;jettySize=auto;html=1;elbow=vertical;curved=0;movable=0;resizable=0;rotatable=0;deletable=0;editable=0;locked=1;connectable=0;" parent="1" source="aM9ryv3xv72pqoxQDRHE-6" target="WgwIK_NGnkUSYbMtnqCj-13" edge="1">
          <mxGeometry relative="1" as="geometry">
            <Array as="points">
              <mxPoint x="480" y="230" />
              <mxPoint x="370" y="240" />
            </Array>
          </mxGeometry>
        </mxCell>
        <mxCell id="WgwIK_NGnkUSYbMtnqCj-25" value="consultarEncuesta()" style="text;html=1;strokeColor=none;fillColor=none;align=center;verticalAlign=middle;whiteSpace=wrap;rounded=0;movable=0;resizable=0;rotatable=0;deletable=0;editable=0;locked=1;connectable=0;" parent="1" vertex="1">
          <mxGeometry x="360" y="210" width="60" height="30" as="geometry" />
        </mxCell>
        <mxCell id="WgwIK_NGnkUSYbMtnqCj-27" style="edgeStyle=elbowEdgeStyle;rounded=0;orthogonalLoop=1;jettySize=auto;html=1;elbow=vertical;curved=0;movable=0;resizable=0;rotatable=0;deletable=0;editable=0;locked=1;connectable=0;" parent="1" source="WgwIK_NGnkUSYbMtnqCj-13" target="WgwIK_NGnkUSYbMtnqCj-26" edge="1">
          <mxGeometry relative="1" as="geometry">
            <Array as="points">
              <mxPoint x="330" y="260" />
              <mxPoint x="330" y="250" />
            </Array>
          </mxGeometry>
        </mxCell>
        <mxCell id="WgwIK_NGnkUSYbMtnqCj-28" value="solicitarSeleccionPeriodo()" style="text;html=1;strokeColor=none;fillColor=none;align=center;verticalAlign=middle;whiteSpace=wrap;rounded=0;movable=0;resizable=0;rotatable=0;deletable=0;editable=0;locked=1;connectable=0;" parent="1" vertex="1">
          <mxGeometry x="365" y="240" width="60" height="30" as="geometry" />
        </mxCell>
        <mxCell id="WgwIK_NGnkUSYbMtnqCj-37" value="tomarSeleccionPeriodo()" style="text;html=1;strokeColor=none;fillColor=none;align=center;verticalAlign=middle;whiteSpace=wrap;rounded=0;movable=1;resizable=1;rotatable=1;deletable=1;editable=1;locked=0;connectable=1;" parent="1" vertex="1">
          <mxGeometry x="150" y="329" width="60" height="30" as="geometry" />
        </mxCell>
        <mxCell id="WgwIK_NGnkUSYbMtnqCj-50" value=":LLamada" style="shape=umlLifeline;perimeter=lifelinePerimeter;whiteSpace=wrap;html=1;container=0;dropTarget=0;collapsible=0;recursiveResize=0;outlineConnect=0;portConstraint=eastwest;newEdgeStyle={&quot;edgeStyle&quot;:&quot;elbowEdgeStyle&quot;,&quot;elbow&quot;:&quot;vertical&quot;,&quot;curved&quot;:0,&quot;rounded&quot;:0};" parent="1" vertex="1">
          <mxGeometry x="640" y="90" width="170" height="1230" as="geometry" />
        </mxCell>
        <mxCell id="WgwIK_NGnkUSYbMtnqCj-60" value="" style="html=1;points=[];perimeter=orthogonalPerimeter;outlineConnect=0;targetShapes=umlLifeline;portConstraint=eastwest;newEdgeStyle={&quot;edgeStyle&quot;:&quot;elbowEdgeStyle&quot;,&quot;elbow&quot;:&quot;vertical&quot;,&quot;curved&quot;:0,&quot;rounded&quot;:0};movable=1;resizable=1;rotatable=1;deletable=1;editable=1;locked=0;connectable=1;" parent="WgwIK_NGnkUSYbMtnqCj-50" vertex="1">
          <mxGeometry x="80" y="410" width="10" height="70" as="geometry" />
        </mxCell>
        <mxCell id="WgwIK_NGnkUSYbMtnqCj-120" value="" style="html=1;points=[];perimeter=orthogonalPerimeter;outlineConnect=0;targetShapes=umlLifeline;portConstraint=eastwest;newEdgeStyle={&quot;edgeStyle&quot;:&quot;elbowEdgeStyle&quot;,&quot;elbow&quot;:&quot;vertical&quot;,&quot;curved&quot;:0,&quot;rounded&quot;:0};movable=1;resizable=1;rotatable=1;deletable=1;editable=1;locked=0;connectable=1;" parent="WgwIK_NGnkUSYbMtnqCj-50" vertex="1">
          <mxGeometry x="80" y="500" width="10" height="30" as="geometry" />
        </mxCell>
        <mxCell id="iyyLop5UdPf2UzQYBVcK-12" value="" style="html=1;points=[];perimeter=orthogonalPerimeter;outlineConnect=0;targetShapes=umlLifeline;portConstraint=eastwest;newEdgeStyle={&quot;edgeStyle&quot;:&quot;elbowEdgeStyle&quot;,&quot;elbow&quot;:&quot;vertical&quot;,&quot;curved&quot;:0,&quot;rounded&quot;:0};movable=1;resizable=1;rotatable=1;deletable=1;editable=1;locked=0;connectable=1;" vertex="1" parent="WgwIK_NGnkUSYbMtnqCj-50">
          <mxGeometry x="85" y="420" width="10" height="50" as="geometry" />
        </mxCell>
        <mxCell id="iyyLop5UdPf2UzQYBVcK-14" style="edgeStyle=elbowEdgeStyle;rounded=0;orthogonalLoop=1;jettySize=auto;html=1;elbow=vertical;curved=0;" edge="1" parent="WgwIK_NGnkUSYbMtnqCj-50" source="iyyLop5UdPf2UzQYBVcK-12" target="iyyLop5UdPf2UzQYBVcK-12">
          <mxGeometry relative="1" as="geometry" />
        </mxCell>
        <mxCell id="WgwIK_NGnkUSYbMtnqCj-52" value=":SeleccionLLamada" style="shape=umlLifeline;perimeter=lifelinePerimeter;whiteSpace=wrap;html=1;container=0;dropTarget=0;collapsible=0;recursiveResize=0;outlineConnect=0;portConstraint=eastwest;newEdgeStyle={&quot;edgeStyle&quot;:&quot;elbowEdgeStyle&quot;,&quot;elbow&quot;:&quot;vertical&quot;,&quot;curved&quot;:0,&quot;rounded&quot;:0};" parent="1" vertex="1">
          <mxGeometry x="850" y="90" width="170" height="1230" as="geometry" />
        </mxCell>
        <mxCell id="WgwIK_NGnkUSYbMtnqCj-132" value="" style="html=1;points=[];perimeter=orthogonalPerimeter;outlineConnect=0;targetShapes=umlLifeline;portConstraint=eastwest;newEdgeStyle={&quot;edgeStyle&quot;:&quot;elbowEdgeStyle&quot;,&quot;elbow&quot;:&quot;vertical&quot;,&quot;curved&quot;:0,&quot;rounded&quot;:0};movable=0;resizable=0;rotatable=0;deletable=0;editable=0;locked=1;connectable=0;" parent="WgwIK_NGnkUSYbMtnqCj-52" vertex="1">
          <mxGeometry x="80" y="710" width="10" height="50" as="geometry" />
        </mxCell>
        <mxCell id="iyyLop5UdPf2UzQYBVcK-7" value="" style="html=1;points=[];perimeter=orthogonalPerimeter;outlineConnect=0;targetShapes=umlLifeline;portConstraint=eastwest;newEdgeStyle={&quot;edgeStyle&quot;:&quot;elbowEdgeStyle&quot;,&quot;elbow&quot;:&quot;vertical&quot;,&quot;curved&quot;:0,&quot;rounded&quot;:0};movable=1;resizable=1;rotatable=1;deletable=1;editable=1;locked=0;connectable=1;" vertex="1" parent="WgwIK_NGnkUSYbMtnqCj-52">
          <mxGeometry x="80" y="780" width="10" height="70" as="geometry" />
        </mxCell>
        <mxCell id="iyyLop5UdPf2UzQYBVcK-32" value="" style="html=1;points=[];perimeter=orthogonalPerimeter;outlineConnect=0;targetShapes=umlLifeline;portConstraint=eastwest;newEdgeStyle={&quot;edgeStyle&quot;:&quot;elbowEdgeStyle&quot;,&quot;elbow&quot;:&quot;vertical&quot;,&quot;curved&quot;:0,&quot;rounded&quot;:0};movable=1;resizable=1;rotatable=1;deletable=1;editable=1;locked=0;connectable=1;" vertex="1" parent="WgwIK_NGnkUSYbMtnqCj-52">
          <mxGeometry x="80" y="860" width="10" height="30" as="geometry" />
        </mxCell>
        <mxCell id="iyyLop5UdPf2UzQYBVcK-35" value="" style="html=1;points=[];perimeter=orthogonalPerimeter;outlineConnect=0;targetShapes=umlLifeline;portConstraint=eastwest;newEdgeStyle={&quot;edgeStyle&quot;:&quot;elbowEdgeStyle&quot;,&quot;elbow&quot;:&quot;vertical&quot;,&quot;curved&quot;:0,&quot;rounded&quot;:0};movable=1;resizable=1;rotatable=1;deletable=1;editable=1;locked=0;connectable=1;" vertex="1" parent="WgwIK_NGnkUSYbMtnqCj-52">
          <mxGeometry x="80" y="920" width="10" height="50" as="geometry" />
        </mxCell>
        <mxCell id="WgwIK_NGnkUSYbMtnqCj-54" value=":Cliente" style="shape=umlLifeline;perimeter=lifelinePerimeter;whiteSpace=wrap;html=1;container=0;dropTarget=0;collapsible=0;recursiveResize=0;outlineConnect=0;portConstraint=eastwest;newEdgeStyle={&quot;edgeStyle&quot;:&quot;elbowEdgeStyle&quot;,&quot;elbow&quot;:&quot;vertical&quot;,&quot;curved&quot;:0,&quot;rounded&quot;:0};" parent="1" vertex="1">
          <mxGeometry x="1060" y="90" width="170" height="1230" as="geometry" />
        </mxCell>
        <mxCell id="WgwIK_NGnkUSYbMtnqCj-135" value="" style="html=1;points=[];perimeter=orthogonalPerimeter;outlineConnect=0;targetShapes=umlLifeline;portConstraint=eastwest;newEdgeStyle={&quot;edgeStyle&quot;:&quot;elbowEdgeStyle&quot;,&quot;elbow&quot;:&quot;vertical&quot;,&quot;curved&quot;:0,&quot;rounded&quot;:0};movable=0;resizable=0;rotatable=0;deletable=0;editable=0;locked=1;connectable=0;" parent="WgwIK_NGnkUSYbMtnqCj-54" vertex="1">
          <mxGeometry x="80" y="730" width="10" height="50" as="geometry" />
        </mxCell>
        <mxCell id="WgwIK_NGnkUSYbMtnqCj-56" value=":CambioEstado" style="shape=umlLifeline;perimeter=lifelinePerimeter;whiteSpace=wrap;html=1;container=0;dropTarget=0;collapsible=0;recursiveResize=0;outlineConnect=0;portConstraint=eastwest;newEdgeStyle={&quot;edgeStyle&quot;:&quot;elbowEdgeStyle&quot;,&quot;elbow&quot;:&quot;vertical&quot;,&quot;curved&quot;:0,&quot;rounded&quot;:0};" parent="1" vertex="1">
          <mxGeometry x="1270" y="90" width="170" height="1230" as="geometry" />
        </mxCell>
        <mxCell id="WgwIK_NGnkUSYbMtnqCj-93" value="" style="html=1;points=[];perimeter=orthogonalPerimeter;outlineConnect=0;targetShapes=umlLifeline;portConstraint=eastwest;newEdgeStyle={&quot;edgeStyle&quot;:&quot;elbowEdgeStyle&quot;,&quot;elbow&quot;:&quot;vertical&quot;,&quot;curved&quot;:0,&quot;rounded&quot;:0};movable=1;resizable=1;rotatable=1;deletable=1;editable=1;locked=0;connectable=1;" parent="WgwIK_NGnkUSYbMtnqCj-56" vertex="1">
          <mxGeometry x="80" y="460" width="10" height="35" as="geometry" />
        </mxCell>
        <mxCell id="iyyLop5UdPf2UzQYBVcK-20" value="" style="html=1;points=[];perimeter=orthogonalPerimeter;outlineConnect=0;targetShapes=umlLifeline;portConstraint=eastwest;newEdgeStyle={&quot;edgeStyle&quot;:&quot;elbowEdgeStyle&quot;,&quot;elbow&quot;:&quot;vertical&quot;,&quot;curved&quot;:0,&quot;rounded&quot;:0};movable=1;resizable=1;rotatable=1;deletable=1;editable=1;locked=0;connectable=1;" vertex="1" parent="WgwIK_NGnkUSYbMtnqCj-56">
          <mxGeometry x="80" y="820" width="10" height="20" as="geometry" />
        </mxCell>
        <mxCell id="WgwIK_NGnkUSYbMtnqCj-69" style="edgeStyle=elbowEdgeStyle;rounded=0;orthogonalLoop=1;jettySize=auto;html=1;elbow=vertical;curved=0;" parent="1" source="WgwIK_NGnkUSYbMtnqCj-35" target="WgwIK_NGnkUSYbMtnqCj-67" edge="1">
          <mxGeometry relative="1" as="geometry">
            <Array as="points">
              <mxPoint x="490" y="420" />
            </Array>
          </mxGeometry>
        </mxCell>
        <mxCell id="WgwIK_NGnkUSYbMtnqCj-70" value="periodoSeleccionado()" style="text;html=1;strokeColor=none;fillColor=none;align=center;verticalAlign=middle;whiteSpace=wrap;rounded=0;movable=1;resizable=1;rotatable=1;deletable=1;editable=1;locked=0;connectable=1;" parent="1" vertex="1">
          <mxGeometry x="365" y="396.5" width="60" height="30" as="geometry" />
        </mxCell>
        <mxCell id="WgwIK_NGnkUSYbMtnqCj-76" value="filtrarPorPeriodoYRepuestas()" style="text;html=1;strokeColor=none;fillColor=none;align=center;verticalAlign=middle;whiteSpace=wrap;rounded=0;movable=0;resizable=0;rotatable=0;deletable=0;editable=0;locked=1;connectable=0;" parent="1" vertex="1">
          <mxGeometry x="590" y="430" width="60" height="30" as="geometry" />
        </mxCell>
        <mxCell id="WgwIK_NGnkUSYbMtnqCj-77" value="loop[mientras haya llamadas]" style="text;html=1;strokeColor=none;fillColor=none;align=center;verticalAlign=middle;whiteSpace=wrap;rounded=0;movable=0;resizable=0;rotatable=0;deletable=0;editable=0;locked=1;connectable=0;" parent="1" vertex="1">
          <mxGeometry x="500" y="460" width="200" height="30" as="geometry" />
        </mxCell>
        <mxCell id="WgwIK_NGnkUSYbMtnqCj-78" style="edgeStyle=elbowEdgeStyle;rounded=0;orthogonalLoop=1;jettySize=auto;html=1;elbow=vertical;curved=0;movable=0;resizable=0;rotatable=0;deletable=0;editable=0;locked=1;connectable=0;" parent="1" source="WgwIK_NGnkUSYbMtnqCj-67" target="WgwIK_NGnkUSYbMtnqCj-60" edge="1">
          <mxGeometry relative="1" as="geometry">
            <Array as="points">
              <mxPoint x="630" y="500" />
              <mxPoint x="680" y="510" />
            </Array>
          </mxGeometry>
        </mxCell>
        <mxCell id="WgwIK_NGnkUSYbMtnqCj-79" value="esDePeriodo()" style="text;html=1;strokeColor=none;fillColor=none;align=center;verticalAlign=middle;whiteSpace=wrap;rounded=0;movable=0;resizable=0;rotatable=0;deletable=0;editable=0;locked=1;connectable=0;" parent="1" vertex="1">
          <mxGeometry x="570" y="480" width="60" height="30" as="geometry" />
        </mxCell>
        <mxCell id="WgwIK_NGnkUSYbMtnqCj-86" value="Estado" style="shape=umlLifeline;perimeter=lifelinePerimeter;whiteSpace=wrap;html=1;container=0;dropTarget=0;collapsible=0;recursiveResize=0;outlineConnect=0;portConstraint=eastwest;newEdgeStyle={&quot;edgeStyle&quot;:&quot;elbowEdgeStyle&quot;,&quot;elbow&quot;:&quot;vertical&quot;,&quot;curved&quot;:0,&quot;rounded&quot;:0};" parent="1" vertex="1">
          <mxGeometry x="1690" y="90" width="170" height="1230" as="geometry" />
        </mxCell>
        <mxCell id="iyyLop5UdPf2UzQYBVcK-26" value="" style="html=1;points=[];perimeter=orthogonalPerimeter;outlineConnect=0;targetShapes=umlLifeline;portConstraint=eastwest;newEdgeStyle={&quot;edgeStyle&quot;:&quot;elbowEdgeStyle&quot;,&quot;elbow&quot;:&quot;vertical&quot;,&quot;curved&quot;:0,&quot;rounded&quot;:0};movable=1;resizable=1;rotatable=1;deletable=1;editable=1;locked=0;connectable=1;" vertex="1" parent="WgwIK_NGnkUSYbMtnqCj-86">
          <mxGeometry x="80" y="890" width="10" height="30" as="geometry" />
        </mxCell>
        <mxCell id="WgwIK_NGnkUSYbMtnqCj-94" style="edgeStyle=elbowEdgeStyle;rounded=0;orthogonalLoop=1;jettySize=auto;html=1;elbow=vertical;curved=0;movable=1;resizable=1;rotatable=1;deletable=1;editable=1;locked=0;connectable=1;" parent="1" source="WgwIK_NGnkUSYbMtnqCj-60" edge="1">
          <mxGeometry relative="1" as="geometry">
            <Array as="points">
              <mxPoint x="1320" y="550" />
              <mxPoint x="1340" y="560" />
              <mxPoint x="1160" y="550" />
            </Array>
            <mxPoint x="1350" y="550" as="targetPoint" />
          </mxGeometry>
        </mxCell>
        <mxCell id="WgwIK_NGnkUSYbMtnqCj-95" value="*getFechaHoraInicio()" style="text;html=1;strokeColor=none;fillColor=none;align=center;verticalAlign=middle;whiteSpace=wrap;rounded=0;movable=1;resizable=1;rotatable=1;deletable=1;editable=1;locked=0;connectable=1;" parent="1" vertex="1">
          <mxGeometry x="1050" y="530" width="60" height="30" as="geometry" />
        </mxCell>
        <mxCell id="WgwIK_NGnkUSYbMtnqCj-108" value="determinarEstadoInicial()" style="text;html=1;strokeColor=none;fillColor=none;align=center;verticalAlign=middle;whiteSpace=wrap;rounded=0;movable=1;resizable=1;rotatable=1;deletable=1;editable=1;locked=0;connectable=1;" parent="1" vertex="1">
          <mxGeometry x="780" y="490" width="60" height="30" as="geometry" />
        </mxCell>
        <mxCell id="WgwIK_NGnkUSYbMtnqCj-115" style="edgeStyle=elbowEdgeStyle;rounded=0;orthogonalLoop=1;jettySize=auto;html=1;elbow=vertical;curved=0;" parent="1" source="WgwIK_NGnkUSYbMtnqCj-67" target="WgwIK_NGnkUSYbMtnqCj-114" edge="1">
          <mxGeometry relative="1" as="geometry" />
        </mxCell>
        <mxCell id="WgwIK_NGnkUSYbMtnqCj-116" value="solicitarSeleccionLLamada()" style="text;html=1;strokeColor=none;fillColor=none;align=center;verticalAlign=middle;whiteSpace=wrap;rounded=0;" parent="1" vertex="1">
          <mxGeometry x="360" y="640" width="60" height="30" as="geometry" />
        </mxCell>
        <mxCell id="WgwIK_NGnkUSYbMtnqCj-119" value="tomarSeleccionLLamada" style="text;html=1;strokeColor=none;fillColor=none;align=center;verticalAlign=middle;whiteSpace=wrap;rounded=0;" parent="1" vertex="1">
          <mxGeometry x="150" y="680" width="60" height="30" as="geometry" />
        </mxCell>
        <mxCell id="WgwIK_NGnkUSYbMtnqCj-121" style="edgeStyle=elbowEdgeStyle;rounded=0;orthogonalLoop=1;jettySize=auto;html=1;elbow=vertical;curved=0;" parent="1" source="WgwIK_NGnkUSYbMtnqCj-67" target="WgwIK_NGnkUSYbMtnqCj-120" edge="1">
          <mxGeometry relative="1" as="geometry">
            <mxPoint x="710" y="600" as="targetPoint" />
            <Array as="points">
              <mxPoint x="680" y="590" />
            </Array>
          </mxGeometry>
        </mxCell>
        <mxCell id="WgwIK_NGnkUSYbMtnqCj-122" value="tieneRtas()" style="text;html=1;strokeColor=none;fillColor=none;align=center;verticalAlign=middle;whiteSpace=wrap;rounded=0;" parent="1" vertex="1">
          <mxGeometry x="590" y="565" width="60" height="30" as="geometry" />
        </mxCell>
        <mxCell id="WgwIK_NGnkUSYbMtnqCj-126" style="edgeStyle=elbowEdgeStyle;rounded=0;orthogonalLoop=1;jettySize=auto;html=1;elbow=vertical;curved=0;" parent="1" source="WgwIK_NGnkUSYbMtnqCj-117" target="WgwIK_NGnkUSYbMtnqCj-125" edge="1">
          <mxGeometry relative="1" as="geometry">
            <Array as="points">
              <mxPoint x="490" y="740" />
            </Array>
          </mxGeometry>
        </mxCell>
        <mxCell id="WgwIK_NGnkUSYbMtnqCj-127" value="llamadaSeleccionada()" style="text;html=1;strokeColor=none;fillColor=none;align=center;verticalAlign=middle;whiteSpace=wrap;rounded=0;" parent="1" vertex="1">
          <mxGeometry x="380" y="720" width="60" height="30" as="geometry" />
        </mxCell>
        <mxCell id="WgwIK_NGnkUSYbMtnqCj-131" value="getDatosLlamada()" style="text;html=1;strokeColor=none;fillColor=none;align=center;verticalAlign=middle;whiteSpace=wrap;rounded=0;" parent="1" vertex="1">
          <mxGeometry x="570" y="750" width="60" height="30" as="geometry" />
        </mxCell>
        <mxCell id="WgwIK_NGnkUSYbMtnqCj-133" style="edgeStyle=elbowEdgeStyle;rounded=0;orthogonalLoop=1;jettySize=auto;html=1;elbow=vertical;curved=0;movable=0;resizable=0;rotatable=0;deletable=0;editable=0;locked=1;connectable=0;" parent="1" source="WgwIK_NGnkUSYbMtnqCj-125" target="WgwIK_NGnkUSYbMtnqCj-132" edge="1">
          <mxGeometry relative="1" as="geometry">
            <Array as="points">
              <mxPoint x="670" y="800" />
            </Array>
          </mxGeometry>
        </mxCell>
        <mxCell id="WgwIK_NGnkUSYbMtnqCj-134" value="getNombreClienteDeLLamada()" style="text;html=1;strokeColor=none;fillColor=none;align=center;verticalAlign=middle;whiteSpace=wrap;rounded=0;movable=0;resizable=0;rotatable=0;deletable=0;editable=0;locked=1;connectable=0;" parent="1" vertex="1">
          <mxGeometry x="660" y="780" width="60" height="30" as="geometry" />
        </mxCell>
        <mxCell id="WgwIK_NGnkUSYbMtnqCj-136" style="edgeStyle=elbowEdgeStyle;rounded=0;orthogonalLoop=1;jettySize=auto;html=1;elbow=vertical;curved=0;movable=0;resizable=0;rotatable=0;deletable=0;editable=0;locked=1;connectable=0;" parent="1" source="WgwIK_NGnkUSYbMtnqCj-132" target="WgwIK_NGnkUSYbMtnqCj-135" edge="1">
          <mxGeometry relative="1" as="geometry">
            <Array as="points">
              <mxPoint x="1080" y="820" />
            </Array>
          </mxGeometry>
        </mxCell>
        <mxCell id="WgwIK_NGnkUSYbMtnqCj-137" value="getNombre()" style="text;html=1;strokeColor=none;fillColor=none;align=center;verticalAlign=middle;whiteSpace=wrap;rounded=0;movable=0;resizable=0;rotatable=0;deletable=0;editable=0;locked=1;connectable=0;" parent="1" vertex="1">
          <mxGeometry x="1020" y="800" width="60" height="30" as="geometry" />
        </mxCell>
        <mxCell id="iyyLop5UdPf2UzQYBVcK-8" style="edgeStyle=elbowEdgeStyle;rounded=0;orthogonalLoop=1;jettySize=auto;html=1;elbow=vertical;curved=0;" edge="1" parent="1" source="WgwIK_NGnkUSYbMtnqCj-125" target="iyyLop5UdPf2UzQYBVcK-7">
          <mxGeometry relative="1" as="geometry">
            <Array as="points">
              <mxPoint x="670" y="870" />
            </Array>
          </mxGeometry>
        </mxCell>
        <mxCell id="iyyLop5UdPf2UzQYBVcK-9" value="determinarUltimoEstado()" style="text;html=1;strokeColor=none;fillColor=none;align=center;verticalAlign=middle;whiteSpace=wrap;rounded=0;" vertex="1" parent="1">
          <mxGeometry x="640" y="850" width="60" height="30" as="geometry" />
        </mxCell>
        <mxCell id="iyyLop5UdPf2UzQYBVcK-11" value="Actual:CambioEstado" style="shape=umlLifeline;perimeter=lifelinePerimeter;whiteSpace=wrap;html=1;container=0;dropTarget=0;collapsible=0;recursiveResize=0;outlineConnect=0;portConstraint=eastwest;newEdgeStyle={&quot;edgeStyle&quot;:&quot;elbowEdgeStyle&quot;,&quot;elbow&quot;:&quot;vertical&quot;,&quot;curved&quot;:0,&quot;rounded&quot;:0};" vertex="1" parent="1">
          <mxGeometry x="1480" y="90" width="170" height="1230" as="geometry" />
        </mxCell>
        <mxCell id="iyyLop5UdPf2UzQYBVcK-23" value="" style="html=1;points=[];perimeter=orthogonalPerimeter;outlineConnect=0;targetShapes=umlLifeline;portConstraint=eastwest;newEdgeStyle={&quot;edgeStyle&quot;:&quot;elbowEdgeStyle&quot;,&quot;elbow&quot;:&quot;vertical&quot;,&quot;curved&quot;:0,&quot;rounded&quot;:0};movable=1;resizable=1;rotatable=1;deletable=1;editable=1;locked=0;connectable=1;" vertex="1" parent="iyyLop5UdPf2UzQYBVcK-11">
          <mxGeometry x="80" y="840" width="10" height="50" as="geometry" />
        </mxCell>
        <mxCell id="iyyLop5UdPf2UzQYBVcK-21" style="edgeStyle=elbowEdgeStyle;rounded=0;orthogonalLoop=1;jettySize=auto;html=1;elbow=vertical;curved=0;" edge="1" parent="1" source="iyyLop5UdPf2UzQYBVcK-7" target="iyyLop5UdPf2UzQYBVcK-20">
          <mxGeometry relative="1" as="geometry">
            <Array as="points">
              <mxPoint x="1040" y="910" />
            </Array>
          </mxGeometry>
        </mxCell>
        <mxCell id="iyyLop5UdPf2UzQYBVcK-22" value="*getFechaHoraInicio()" style="text;html=1;strokeColor=none;fillColor=none;align=center;verticalAlign=middle;whiteSpace=wrap;rounded=0;movable=1;resizable=1;rotatable=1;deletable=1;editable=1;locked=0;connectable=1;" vertex="1" parent="1">
          <mxGeometry x="1190" y="890" width="60" height="30" as="geometry" />
        </mxCell>
        <mxCell id="iyyLop5UdPf2UzQYBVcK-25" value="getNombreEstado()" style="text;html=1;strokeColor=none;fillColor=none;align=center;verticalAlign=middle;whiteSpace=wrap;rounded=0;movable=1;resizable=1;rotatable=1;deletable=1;editable=1;locked=0;connectable=1;" vertex="1" parent="1">
          <mxGeometry x="1430" y="920" width="60" height="30" as="geometry" />
        </mxCell>
        <mxCell id="iyyLop5UdPf2UzQYBVcK-27" style="edgeStyle=elbowEdgeStyle;rounded=0;orthogonalLoop=1;jettySize=auto;html=1;elbow=vertical;curved=0;" edge="1" parent="1" source="iyyLop5UdPf2UzQYBVcK-23" target="iyyLop5UdPf2UzQYBVcK-26">
          <mxGeometry relative="1" as="geometry">
            <Array as="points">
              <mxPoint x="1740" y="980" />
            </Array>
          </mxGeometry>
        </mxCell>
        <mxCell id="iyyLop5UdPf2UzQYBVcK-28" value="getNombre()" style="text;html=1;strokeColor=none;fillColor=none;align=center;verticalAlign=middle;whiteSpace=wrap;rounded=0;movable=1;resizable=1;rotatable=1;deletable=1;editable=1;locked=0;connectable=1;" vertex="1" parent="1">
          <mxGeometry x="1640" y="960" width="60" height="30" as="geometry" />
        </mxCell>
        <mxCell id="iyyLop5UdPf2UzQYBVcK-33" style="edgeStyle=elbowEdgeStyle;rounded=0;orthogonalLoop=1;jettySize=auto;html=1;elbow=vertical;curved=0;movable=1;resizable=1;rotatable=1;deletable=1;editable=1;locked=0;connectable=1;" edge="1" parent="1" source="WgwIK_NGnkUSYbMtnqCj-125" target="iyyLop5UdPf2UzQYBVcK-32">
          <mxGeometry relative="1" as="geometry">
            <Array as="points">
              <mxPoint x="790" y="950" />
              <mxPoint x="860" y="940" />
            </Array>
          </mxGeometry>
        </mxCell>
        <mxCell id="iyyLop5UdPf2UzQYBVcK-34" value="getDuracion()" style="text;html=1;strokeColor=none;fillColor=none;align=center;verticalAlign=middle;whiteSpace=wrap;rounded=0;" vertex="1" parent="1">
          <mxGeometry x="650" y="930" width="60" height="30" as="geometry" />
        </mxCell>
        <mxCell id="iyyLop5UdPf2UzQYBVcK-36" style="edgeStyle=elbowEdgeStyle;rounded=0;orthogonalLoop=1;jettySize=auto;html=1;elbow=vertical;curved=0;" edge="1" parent="1" source="WgwIK_NGnkUSYbMtnqCj-125" target="iyyLop5UdPf2UzQYBVcK-35">
          <mxGeometry relative="1" as="geometry">
            <Array as="points">
              <mxPoint x="830" y="1010" />
            </Array>
          </mxGeometry>
        </mxCell>
        <mxCell id="iyyLop5UdPf2UzQYBVcK-37" value="getRepuesta()" style="text;html=1;strokeColor=none;fillColor=none;align=center;verticalAlign=middle;whiteSpace=wrap;rounded=0;" vertex="1" parent="1">
          <mxGeometry x="650" y="990" width="60" height="30" as="geometry" />
        </mxCell>
        <mxCell id="iyyLop5UdPf2UzQYBVcK-39" value="loop[mientras haya repuestas]" style="text;html=1;strokeColor=none;fillColor=none;align=center;verticalAlign=middle;whiteSpace=wrap;rounded=0;movable=1;resizable=1;rotatable=1;deletable=1;editable=1;locked=0;connectable=1;" vertex="1" parent="1">
          <mxGeometry x="930" y="1020" width="200" height="30" as="geometry" />
        </mxCell>
        <mxCell id="iyyLop5UdPf2UzQYBVcK-40" value="RepuestaDeCliente" style="shape=umlLifeline;perimeter=lifelinePerimeter;whiteSpace=wrap;html=1;container=0;dropTarget=0;collapsible=0;recursiveResize=0;outlineConnect=0;portConstraint=eastwest;newEdgeStyle={&quot;edgeStyle&quot;:&quot;elbowEdgeStyle&quot;,&quot;elbow&quot;:&quot;vertical&quot;,&quot;curved&quot;:0,&quot;rounded&quot;:0};" vertex="1" parent="1">
          <mxGeometry x="1910" y="90" width="170" height="1230" as="geometry" />
        </mxCell>
        <mxCell id="iyyLop5UdPf2UzQYBVcK-41" value="" style="html=1;points=[];perimeter=orthogonalPerimeter;outlineConnect=0;targetShapes=umlLifeline;portConstraint=eastwest;newEdgeStyle={&quot;edgeStyle&quot;:&quot;elbowEdgeStyle&quot;,&quot;elbow&quot;:&quot;vertical&quot;,&quot;curved&quot;:0,&quot;rounded&quot;:0};movable=1;resizable=1;rotatable=1;deletable=1;editable=1;locked=0;connectable=1;" vertex="1" parent="iyyLop5UdPf2UzQYBVcK-40">
          <mxGeometry x="80" y="970" width="10" height="50" as="geometry" />
        </mxCell>
        <mxCell id="iyyLop5UdPf2UzQYBVcK-42" style="edgeStyle=elbowEdgeStyle;rounded=0;orthogonalLoop=1;jettySize=auto;html=1;elbow=vertical;curved=0;" edge="1" parent="1" source="iyyLop5UdPf2UzQYBVcK-35" target="iyyLop5UdPf2UzQYBVcK-41">
          <mxGeometry relative="1" as="geometry">
            <Array as="points">
              <mxPoint x="1950" y="1060" />
            </Array>
          </mxGeometry>
        </mxCell>
        <mxCell id="iyyLop5UdPf2UzQYBVcK-43" value="getDescripcionRta()" style="text;html=1;strokeColor=none;fillColor=none;align=center;verticalAlign=middle;whiteSpace=wrap;rounded=0;" vertex="1" parent="1">
          <mxGeometry x="1450" y="1040" width="60" height="30" as="geometry" />
        </mxCell>
        <mxCell id="iyyLop5UdPf2UzQYBVcK-44" value="RepuestaPosible" style="shape=umlLifeline;perimeter=lifelinePerimeter;whiteSpace=wrap;html=1;container=0;dropTarget=0;collapsible=0;recursiveResize=0;outlineConnect=0;portConstraint=eastwest;newEdgeStyle={&quot;edgeStyle&quot;:&quot;elbowEdgeStyle&quot;,&quot;elbow&quot;:&quot;vertical&quot;,&quot;curved&quot;:0,&quot;rounded&quot;:0};" vertex="1" parent="1">
          <mxGeometry x="2150" y="90" width="170" height="1230" as="geometry" />
        </mxCell>
        <mxCell id="iyyLop5UdPf2UzQYBVcK-45" value="" style="html=1;points=[];perimeter=orthogonalPerimeter;outlineConnect=0;targetShapes=umlLifeline;portConstraint=eastwest;newEdgeStyle={&quot;edgeStyle&quot;:&quot;elbowEdgeStyle&quot;,&quot;elbow&quot;:&quot;vertical&quot;,&quot;curved&quot;:0,&quot;rounded&quot;:0};movable=1;resizable=1;rotatable=1;deletable=1;editable=1;locked=0;connectable=1;" vertex="1" parent="iyyLop5UdPf2UzQYBVcK-44">
          <mxGeometry x="80" y="1020" width="10" height="30" as="geometry" />
        </mxCell>
        <mxCell id="iyyLop5UdPf2UzQYBVcK-46" style="edgeStyle=elbowEdgeStyle;rounded=0;orthogonalLoop=1;jettySize=auto;html=1;elbow=vertical;curved=0;" edge="1" parent="1" source="iyyLop5UdPf2UzQYBVcK-41" target="iyyLop5UdPf2UzQYBVcK-45">
          <mxGeometry relative="1" as="geometry">
            <Array as="points">
              <mxPoint x="2050" y="1110" />
            </Array>
          </mxGeometry>
        </mxCell>
        <mxCell id="iyyLop5UdPf2UzQYBVcK-47" value="getDescripcionRta()" style="text;html=1;strokeColor=none;fillColor=none;align=center;verticalAlign=middle;whiteSpace=wrap;rounded=0;" vertex="1" parent="1">
          <mxGeometry x="2110" y="1090" width="60" height="30" as="geometry" />
        </mxCell>
        <mxCell id="iyyLop5UdPf2UzQYBVcK-48" value="Pregunta" style="shape=umlLifeline;perimeter=lifelinePerimeter;whiteSpace=wrap;html=1;container=0;dropTarget=0;collapsible=0;recursiveResize=0;outlineConnect=0;portConstraint=eastwest;newEdgeStyle={&quot;edgeStyle&quot;:&quot;elbowEdgeStyle&quot;,&quot;elbow&quot;:&quot;vertical&quot;,&quot;curved&quot;:0,&quot;rounded&quot;:0};" vertex="1" parent="1">
          <mxGeometry x="2380" y="90" width="170" height="1230" as="geometry" />
        </mxCell>
        <mxCell id="iyyLop5UdPf2UzQYBVcK-49" value="" style="html=1;points=[];perimeter=orthogonalPerimeter;outlineConnect=0;targetShapes=umlLifeline;portConstraint=eastwest;newEdgeStyle={&quot;edgeStyle&quot;:&quot;elbowEdgeStyle&quot;,&quot;elbow&quot;:&quot;vertical&quot;,&quot;curved&quot;:0,&quot;rounded&quot;:0};movable=1;resizable=1;rotatable=1;deletable=1;editable=1;locked=0;connectable=1;" vertex="1" parent="iyyLop5UdPf2UzQYBVcK-48">
          <mxGeometry x="80" y="1050" width="10" height="30" as="geometry" />
        </mxCell>
        <mxCell id="iyyLop5UdPf2UzQYBVcK-50" value="Encuesta" style="shape=umlLifeline;perimeter=lifelinePerimeter;whiteSpace=wrap;html=1;container=0;dropTarget=0;collapsible=0;recursiveResize=0;outlineConnect=0;portConstraint=eastwest;newEdgeStyle={&quot;edgeStyle&quot;:&quot;elbowEdgeStyle&quot;,&quot;elbow&quot;:&quot;vertical&quot;,&quot;curved&quot;:0,&quot;rounded&quot;:0};" vertex="1" parent="1">
          <mxGeometry x="2600" y="90" width="170" height="1230" as="geometry" />
        </mxCell>
        <mxCell id="iyyLop5UdPf2UzQYBVcK-51" value="" style="html=1;points=[];perimeter=orthogonalPerimeter;outlineConnect=0;targetShapes=umlLifeline;portConstraint=eastwest;newEdgeStyle={&quot;edgeStyle&quot;:&quot;elbowEdgeStyle&quot;,&quot;elbow&quot;:&quot;vertical&quot;,&quot;curved&quot;:0,&quot;rounded&quot;:0};movable=1;resizable=1;rotatable=1;deletable=1;editable=1;locked=0;connectable=1;" vertex="1" parent="iyyLop5UdPf2UzQYBVcK-50">
          <mxGeometry x="80" y="1080" width="10" height="50" as="geometry" />
        </mxCell>
        <mxCell id="iyyLop5UdPf2UzQYBVcK-52" style="edgeStyle=elbowEdgeStyle;rounded=0;orthogonalLoop=1;jettySize=auto;html=1;elbow=vertical;curved=0;" edge="1" parent="1" source="iyyLop5UdPf2UzQYBVcK-45" target="iyyLop5UdPf2UzQYBVcK-49">
          <mxGeometry relative="1" as="geometry">
            <Array as="points">
              <mxPoint x="2420" y="1140" />
            </Array>
          </mxGeometry>
        </mxCell>
        <mxCell id="iyyLop5UdPf2UzQYBVcK-53" style="edgeStyle=elbowEdgeStyle;rounded=0;orthogonalLoop=1;jettySize=auto;html=1;elbow=vertical;curved=0;" edge="1" parent="1" source="iyyLop5UdPf2UzQYBVcK-49" target="iyyLop5UdPf2UzQYBVcK-51">
          <mxGeometry relative="1" as="geometry">
            <Array as="points">
              <mxPoint x="2640" y="1170" />
            </Array>
          </mxGeometry>
        </mxCell>
        <mxCell id="iyyLop5UdPf2UzQYBVcK-54" value="getDescripcion()" style="text;html=1;strokeColor=none;fillColor=none;align=center;verticalAlign=middle;whiteSpace=wrap;rounded=0;" vertex="1" parent="1">
          <mxGeometry x="2330" y="1120" width="60" height="30" as="geometry" />
        </mxCell>
        <mxCell id="iyyLop5UdPf2UzQYBVcK-55" value="getDescripcionEncuesta()" style="text;html=1;strokeColor=none;fillColor=none;align=center;verticalAlign=middle;whiteSpace=wrap;rounded=0;" vertex="1" parent="1">
          <mxGeometry x="2560" y="1150" width="60" height="30" as="geometry" />
        </mxCell>
        <mxCell id="iyyLop5UdPf2UzQYBVcK-60" style="edgeStyle=elbowEdgeStyle;rounded=0;orthogonalLoop=1;jettySize=auto;html=1;elbow=vertical;curved=0;" edge="1" parent="1" source="WgwIK_NGnkUSYbMtnqCj-125" target="iyyLop5UdPf2UzQYBVcK-59">
          <mxGeometry relative="1" as="geometry">
            <Array as="points">
              <mxPoint x="470" y="1045" />
              <mxPoint x="360" y="1030" />
            </Array>
          </mxGeometry>
        </mxCell>
        <mxCell id="iyyLop5UdPf2UzQYBVcK-61" value="mostrarDatosLLamadaSeleccionada()" style="text;html=1;strokeColor=none;fillColor=none;align=center;verticalAlign=middle;whiteSpace=wrap;rounded=0;" vertex="1" parent="1">
          <mxGeometry x="360" y="1020" width="60" height="30" as="geometry" />
        </mxCell>
        <mxCell id="iyyLop5UdPf2UzQYBVcK-64" style="edgeStyle=elbowEdgeStyle;rounded=0;orthogonalLoop=1;jettySize=auto;html=1;elbow=vertical;curved=0;" edge="1" parent="1" source="iyyLop5UdPf2UzQYBVcK-62" target="iyyLop5UdPf2UzQYBVcK-63">
          <mxGeometry relative="1" as="geometry" />
        </mxCell>
        <mxCell id="iyyLop5UdPf2UzQYBVcK-65" value="solicitarSeleccionFormaGeneracion()" style="text;html=1;strokeColor=none;fillColor=none;align=center;verticalAlign=middle;whiteSpace=wrap;rounded=0;" vertex="1" parent="1">
          <mxGeometry x="380" y="1100" width="60" height="30" as="geometry" />
        </mxCell>
        <mxCell id="iyyLop5UdPf2UzQYBVcK-69" value="tomarSeleccionGenerarCSV()" style="text;html=1;strokeColor=none;fillColor=none;align=center;verticalAlign=middle;whiteSpace=wrap;rounded=0;" vertex="1" parent="1">
          <mxGeometry x="150" y="1150" width="60" height="30" as="geometry" />
        </mxCell>
        <mxCell id="iyyLop5UdPf2UzQYBVcK-71" style="edgeStyle=elbowEdgeStyle;rounded=0;orthogonalLoop=1;jettySize=auto;html=1;elbow=vertical;curved=0;" edge="1" parent="1" source="iyyLop5UdPf2UzQYBVcK-67">
          <mxGeometry relative="1" as="geometry">
            <mxPoint x="505" y="1210" as="targetPoint" />
            <Array as="points">
              <mxPoint x="370" y="1210" />
            </Array>
          </mxGeometry>
        </mxCell>
        <mxCell id="iyyLop5UdPf2UzQYBVcK-72" value="seleccionGenerarCSV()" style="text;html=1;strokeColor=none;fillColor=none;align=center;verticalAlign=middle;whiteSpace=wrap;rounded=0;" vertex="1" parent="1">
          <mxGeometry x="370" y="1190" width="60" height="30" as="geometry" />
        </mxCell>
        <mxCell id="iyyLop5UdPf2UzQYBVcK-81" value="finCU()" style="text;html=1;strokeColor=none;fillColor=none;align=center;verticalAlign=middle;whiteSpace=wrap;rounded=0;" vertex="1" parent="1">
          <mxGeometry x="530" y="1290" width="60" height="30" as="geometry" />
        </mxCell>
        <mxCell id="iyyLop5UdPf2UzQYBVcK-82" style="edgeStyle=elbowEdgeStyle;rounded=0;orthogonalLoop=1;jettySize=auto;html=1;elbow=vertical;curved=0;" edge="1" parent="1" source="iyyLop5UdPf2UzQYBVcK-7" target="iyyLop5UdPf2UzQYBVcK-23">
          <mxGeometry relative="1" as="geometry">
            <Array as="points">
              <mxPoint x="1320" y="940" />
              <mxPoint x="1170" y="930" />
            </Array>
          </mxGeometry>
        </mxCell>
        <mxCell id="iyyLop5UdPf2UzQYBVcK-94" value="" style="edgeStyle=elbowEdgeStyle;rounded=0;orthogonalLoop=1;jettySize=auto;html=1;elbow=vertical;curved=0;dashed=1;dashPattern=8 8;" edge="1" parent="1" source="iyyLop5UdPf2UzQYBVcK-91">
          <mxGeometry relative="1" as="geometry">
            <mxPoint x="764.0898605935345" y="1215.294117647059" as="targetPoint" />
          </mxGeometry>
        </mxCell>
        <mxCell id="iyyLop5UdPf2UzQYBVcK-95" value="crearCSV()" style="text;html=1;strokeColor=none;fillColor=none;align=center;verticalAlign=middle;whiteSpace=wrap;rounded=0;" vertex="1" parent="1">
          <mxGeometry x="610" y="1190" width="60" height="30" as="geometry" />
        </mxCell>
        <mxCell id="iyyLop5UdPf2UzQYBVcK-96" value=":LlamadaCSV" style="text;html=1;strokeColor=none;fillColor=none;align=center;verticalAlign=middle;whiteSpace=wrap;rounded=0;" vertex="1" parent="1">
          <mxGeometry x="745" y="1220" width="60" height="30" as="geometry" />
        </mxCell>
        <mxCell id="iyyLop5UdPf2UzQYBVcK-97" value="" style="endArrow=none;html=1;rounded=0;" edge="1" parent="1">
          <mxGeometry width="50" height="50" relative="1" as="geometry">
            <mxPoint x="740" y="1250" as="sourcePoint" />
            <mxPoint x="830" y="1250" as="targetPoint" />
            <Array as="points">
              <mxPoint x="800" y="1250" />
              <mxPoint x="820" y="1250" />
            </Array>
          </mxGeometry>
        </mxCell>
        <mxCell id="iyyLop5UdPf2UzQYBVcK-98" value="" style="endArrow=none;dashed=1;html=1;rounded=0;" edge="1" parent="1">
          <mxGeometry width="50" height="50" relative="1" as="geometry">
            <mxPoint x="780" y="1320" as="sourcePoint" />
            <mxPoint x="780" y="1250" as="targetPoint" />
          </mxGeometry>
        </mxCell>
        <mxCell id="iyyLop5UdPf2UzQYBVcK-101" value="" style="shape=image;verticalLabelPosition=bottom;labelBackgroundColor=default;verticalAlign=top;aspect=fixed;imageAspect=0;image=data:image/png,iVBORw0KGgoAAAANSUhEUgAAAIYAAABSCAYAAACR1qyoAAAAAXNSR0IArs4c6QAAAARnQU1BAACxjwv8YQUAAAAJcEhZcwAAEnQAABJ0Ad5mH3gAAAIhSURBVHhe7dzhboMgGEZh3f3f8yZJWRx5FWyB73WeJ1n2T2m/UzBLs/V7swCFr9dv4A/CgEQYkAgDEmFAIgxIhAGJMCARBiTCgEQYkAgDEmFAIgxIhAGJMCARBiSbMNZ1/f1BPIswyhiIIx5HCSTCgGTxLXF1dNzty+utx99dXhdhvKnXc5Dr6+QouSgF0SuKpPf1eiGMRqMH6BYIYTSYOTCXQHjGOHF1QLU1977eSIRxoGWIn65xxj3exVEi1AaWhtVjYC3XubrL9EIYhZYoeqsFEhEHYeycDaDl0/0ppzgIo8HoIPZc4iCMl6M3fWYUWcQ9S4SxcYoiO7r3rF2DMCA9PgzH3SKL3DXYMQSHKLKotRAGJNs/iUdy2jGSiOOOHaPgFkUSsSbCgEQYkAgD0qO/jxF133fMXis7BiTCgEQYBbe/qSQRa3p0GK7PEy1Gr50dAxJhCE7HSdRaHh/G0Zbs+KyRzTgC2TGMRcZJGBvHXePo3rMemAmjIiIOh2OMMF7OPokzB3V2r1m7RUIYO9FxuESREEahFseIQGrXnR1FQhhCbRC9Amm5TkQUCf8G4cSV4beud8Q1RyCMiiuD7Cn69XOUVKQBzRzS7PsdIYxGowfmEkRGGBf1HqBbEBnPGJ20Povc5XVZhJHs39i7RfEf2YQBLzxjQCIMSIQBiTAgEQYkwoBEGJAIAxJhQCIMSIQBiTAgEQYkwoBEGBCW5QeGVwV+A7K4/QAAAABJRU5ErkJggg==;" vertex="1" parent="1">
          <mxGeometry x="250" y="20.000000000000004" width="70" height="42.84" as="geometry" />
        </mxCell>
        <mxCell id="iyyLop5UdPf2UzQYBVcK-102" value="" style="shape=image;verticalLabelPosition=bottom;labelBackgroundColor=default;verticalAlign=top;aspect=fixed;imageAspect=0;image=data:image/png,iVBORw0KGgoAAAANSUhEUgAAAEYAAAA1CAYAAAD8mJ3rAAAAAXNSR0IArs4c6QAAAARnQU1BAACxjwv8YQUAAAAJcEhZcwAAEnQAABJ0Ad5mH3gAAAGtSURBVGhD7Zpha8MwDEST/f//vE5QjeJNsSzfyU7Qg9Fv1vXllKSw8/uHo/jD1/uzaICJOc/z9+8JQMS0Mp4gp1bJYFrMU1anZUqMJeUJD7paJYPwe0ykLd6126FxITFeKaj7zwpRlFUSISgpAvo8D8ONsQLKMVnhMxo01JgdpAgyiz1vqDGIML1xozNY7XGLiUqZDe6Zy5DjEhORgg7by4CeR3kqMa6gnHl1brTRFlAxvfAIsuS4xHi+LFvIJxly3I25CpMpRWHPdIuxrsQKKYo1G9Eays33CbjE7NgWhdWacGN2kKIwstQqGXTFoB5/K5jJHmrMTmukoDPVKhmUGIMSY1BiDEqMQYkxCInZ8d0GnakrZsd3Fi8z2WuVDMJidlonRhaXGKuSO95rlNlbwO1XiXVx3GJ2bI01G/HAgDRmhRz2zCExV1ciU87VLERbhOHGrJaTIUUI/UeV0JOADCmkz4uKETwNmQ2cMeM/psQInuCKdxTjzFGmxQgjXwQJS4oAEaNkCWIKUaBiFJagDCEKRYyCEpQpRKGKafGKWiGiJVXMnbj9r2sOx/ECv+PlLc53FNIAAAAASUVORK5CYII=;" vertex="1" parent="1">
          <mxGeometry x="490.38" y="26.42" width="39.62" height="30" as="geometry" />
        </mxCell>
        <mxCell id="iyyLop5UdPf2UzQYBVcK-103" value="" style="shape=image;verticalLabelPosition=bottom;labelBackgroundColor=default;verticalAlign=top;aspect=fixed;imageAspect=0;image=data:image/png,iVBORw0KGgoAAAANSUhEUgAAAFkAAABJCAYAAABW3Yo0AAAAAXNSR0IArs4c6QAAAARnQU1BAACxjwv8YQUAAAAJcEhZcwAAEnQAABJ0Ad5mH3gAAAGsSURBVHhe7drRroIwEEVR8P//WW1iE0OglDhnz0TOevE+0XZbKzeyPt8Wk3p8Xk3IkQGODHBkgCMDHBngyABHBjgywJEBjgxwZIAjAxwZ4MgARwY4MqD0LyPrun7+Gqv+406pyLNRz1SLXiJyVNytKrFTI6vibmXHTvviowI3bSxyvC18J19d7Nn0oq+ngEaeCfLrdIgxrsIiny0+ehr0eCPImZyx4HbN0XVndnwUeeTRYs5CRKgQOu3uQh33W3ZoaeSjBZCBu4wxO1nkSoG7o7HVuzntuLgTSeSKu7jL2M3YTq4QuKPn4uMCEB5Z/SWipJo7spMrHRUdOScfFwBHBjgywJEBjgxwZAASueK9Mzmn8MgV74lnqebu4wKARa50ZNBzkUQ++thVPJs75TF3u+Mi442WRa64m4/GVn9Zp+zkjNCZb6408miHkIsejaXexY18J2eHzg7c+Fk4gJ/qBJR+Pnl2aoprRsIjN1eiRMoI3LTV5oz8p/beyNv9x6e29yl1ZIAjAxw52N6ZnHJ3cTfeyQBHBjgywJEBjgxwZIAjAxwZ4MgAR5ZblhdWJ8JQJ5usuwAAAABJRU5ErkJggg==;" vertex="1" parent="1">
          <mxGeometry x="700.61" y="21.419999999999998" width="48.77" height="40" as="geometry" />
        </mxCell>
        <mxCell id="iyyLop5UdPf2UzQYBVcK-104" value="" style="shape=image;verticalLabelPosition=bottom;labelBackgroundColor=default;verticalAlign=top;aspect=fixed;imageAspect=0;image=data:image/png,iVBORw0KGgoAAAANSUhEUgAAAFkAAABJCAYAAABW3Yo0AAAAAXNSR0IArs4c6QAAAARnQU1BAACxjwv8YQUAAAAJcEhZcwAAEnQAABJ0Ad5mH3gAAAGsSURBVHhe7drRroIwEEVR8P//WW1iE0OglDhnz0TOevE+0XZbKzeyPt8Wk3p8Xk3IkQGODHBkgCMDHBngyABHBjgywJEBjgxwZIAjAxwZ4MgARwY4MqD0LyPrun7+Gqv+406pyLNRz1SLXiJyVNytKrFTI6vibmXHTvviowI3bSxyvC18J19d7Nn0oq+ngEaeCfLrdIgxrsIiny0+ehr0eCPImZyx4HbN0XVndnwUeeTRYs5CRKgQOu3uQh33W3ZoaeSjBZCBu4wxO1nkSoG7o7HVuzntuLgTSeSKu7jL2M3YTq4QuKPn4uMCEB5Z/SWipJo7spMrHRUdOScfFwBHBjgywJEBjgxwZAASueK9Mzmn8MgV74lnqebu4wKARa50ZNBzkUQ++thVPJs75TF3u+Mi442WRa64m4/GVn9Zp+zkjNCZb6408miHkIsejaXexY18J2eHzg7c+Fk4gJ/qBJR+Pnl2aoprRsIjN1eiRMoI3LTV5oz8p/beyNv9x6e29yl1ZIAjAxw52N6ZnHJ3cTfeyQBHBjgywJEBjgxwZIAjAxwZ4MgAR5ZblhdWJ8JQJ5usuwAAAABJRU5ErkJggg==;" vertex="1" parent="1">
          <mxGeometry x="910.62" y="20" width="48.77" height="40" as="geometry" />
        </mxCell>
        <mxCell id="iyyLop5UdPf2UzQYBVcK-105" value="" style="shape=image;verticalLabelPosition=bottom;labelBackgroundColor=default;verticalAlign=top;aspect=fixed;imageAspect=0;image=data:image/png,iVBORw0KGgoAAAANSUhEUgAAAFkAAABJCAYAAABW3Yo0AAAAAXNSR0IArs4c6QAAAARnQU1BAACxjwv8YQUAAAAJcEhZcwAAEnQAABJ0Ad5mH3gAAAGsSURBVHhe7drRroIwEEVR8P//WW1iE0OglDhnz0TOevE+0XZbKzeyPt8Wk3p8Xk3IkQGODHBkgCMDHBngyABHBjgywJEBjgxwZIAjAxwZ4MgARwY4MqD0LyPrun7+Gqv+406pyLNRz1SLXiJyVNytKrFTI6vibmXHTvviowI3bSxyvC18J19d7Nn0oq+ngEaeCfLrdIgxrsIiny0+ehr0eCPImZyx4HbN0XVndnwUeeTRYs5CRKgQOu3uQh33W3ZoaeSjBZCBu4wxO1nkSoG7o7HVuzntuLgTSeSKu7jL2M3YTq4QuKPn4uMCEB5Z/SWipJo7spMrHRUdOScfFwBHBjgywJEBjgxwZAASueK9Mzmn8MgV74lnqebu4wKARa50ZNBzkUQ++thVPJs75TF3u+Mi442WRa64m4/GVn9Zp+zkjNCZb6408miHkIsejaXexY18J2eHzg7c+Fk4gJ/qBJR+Pnl2aoprRsIjN1eiRMoI3LTV5oz8p/beyNv9x6e29yl1ZIAjAxw52N6ZnHJ3cTfeyQBHBjgywJEBjgxwZIAjAxwZ4MgAR5ZblhdWJ8JQJ5usuwAAAABJRU5ErkJggg==;" vertex="1" parent="1">
          <mxGeometry x="1120.62" y="21.42" width="48.77" height="40" as="geometry" />
        </mxCell>
        <mxCell id="iyyLop5UdPf2UzQYBVcK-106" value="" style="shape=image;verticalLabelPosition=bottom;labelBackgroundColor=default;verticalAlign=top;aspect=fixed;imageAspect=0;image=data:image/png,iVBORw0KGgoAAAANSUhEUgAAAFkAAABJCAYAAABW3Yo0AAAAAXNSR0IArs4c6QAAAARnQU1BAACxjwv8YQUAAAAJcEhZcwAAEnQAABJ0Ad5mH3gAAAGsSURBVHhe7drRroIwEEVR8P//WW1iE0OglDhnz0TOevE+0XZbKzeyPt8Wk3p8Xk3IkQGODHBkgCMDHBngyABHBjgywJEBjgxwZIAjAxwZ4MgARwY4MqD0LyPrun7+Gqv+406pyLNRz1SLXiJyVNytKrFTI6vibmXHTvviowI3bSxyvC18J19d7Nn0oq+ngEaeCfLrdIgxrsIiny0+ehr0eCPImZyx4HbN0XVndnwUeeTRYs5CRKgQOu3uQh33W3ZoaeSjBZCBu4wxO1nkSoG7o7HVuzntuLgTSeSKu7jL2M3YTq4QuKPn4uMCEB5Z/SWipJo7spMrHRUdOScfFwBHBjgywJEBjgxwZAASueK9Mzmn8MgV74lnqebu4wKARa50ZNBzkUQ++thVPJs75TF3u+Mi442WRa64m4/GVn9Zp+zkjNCZb6408miHkIsejaXexY18J2eHzg7c+Fk4gJ/qBJR+Pnl2aoprRsIjN1eiRMoI3LTV5oz8p/beyNv9x6e29yl1ZIAjAxw52N6ZnHJ3cTfeyQBHBjgywJEBjgxwZIAjAxwZ4MgAR5ZblhdWJ8JQJ5usuwAAAABJRU5ErkJggg==;" vertex="1" parent="1">
          <mxGeometry x="1330.62" y="21.42" width="48.77" height="40" as="geometry" />
        </mxCell>
        <mxCell id="iyyLop5UdPf2UzQYBVcK-107" value="" style="shape=image;verticalLabelPosition=bottom;labelBackgroundColor=default;verticalAlign=top;aspect=fixed;imageAspect=0;image=data:image/png,iVBORw0KGgoAAAANSUhEUgAAAFkAAABJCAYAAABW3Yo0AAAAAXNSR0IArs4c6QAAAARnQU1BAACxjwv8YQUAAAAJcEhZcwAAEnQAABJ0Ad5mH3gAAAGsSURBVHhe7drRroIwEEVR8P//WW1iE0OglDhnz0TOevE+0XZbKzeyPt8Wk3p8Xk3IkQGODHBkgCMDHBngyABHBjgywJEBjgxwZIAjAxwZ4MgARwY4MqD0LyPrun7+Gqv+406pyLNRz1SLXiJyVNytKrFTI6vibmXHTvviowI3bSxyvC18J19d7Nn0oq+ngEaeCfLrdIgxrsIiny0+ehr0eCPImZyx4HbN0XVndnwUeeTRYs5CRKgQOu3uQh33W3ZoaeSjBZCBu4wxO1nkSoG7o7HVuzntuLgTSeSKu7jL2M3YTq4QuKPn4uMCEB5Z/SWipJo7spMrHRUdOScfFwBHBjgywJEBjgxwZAASueK9Mzmn8MgV74lnqebu4wKARa50ZNBzkUQ++thVPJs75TF3u+Mi442WRa64m4/GVn9Zp+zkjNCZb6408miHkIsejaXexY18J2eHzg7c+Fk4gJ/qBJR+Pnl2aoprRsIjN1eiRMoI3LTV5oz8p/beyNv9x6e29yl1ZIAjAxw52N6ZnHJ3cTfeyQBHBjgywJEBjgxwZIAjAxwZ4MgAR5ZblhdWJ8JQJ5usuwAAAABJRU5ErkJggg==;" vertex="1" parent="1">
          <mxGeometry x="1540.6100000000001" y="21.42" width="48.77" height="40" as="geometry" />
        </mxCell>
        <mxCell id="iyyLop5UdPf2UzQYBVcK-108" value="" style="shape=image;verticalLabelPosition=bottom;labelBackgroundColor=default;verticalAlign=top;aspect=fixed;imageAspect=0;image=data:image/png,iVBORw0KGgoAAAANSUhEUgAAAFkAAABJCAYAAABW3Yo0AAAAAXNSR0IArs4c6QAAAARnQU1BAACxjwv8YQUAAAAJcEhZcwAAEnQAABJ0Ad5mH3gAAAGsSURBVHhe7drRroIwEEVR8P//WW1iE0OglDhnz0TOevE+0XZbKzeyPt8Wk3p8Xk3IkQGODHBkgCMDHBngyABHBjgywJEBjgxwZIAjAxwZ4MgARwY4MqD0LyPrun7+Gqv+406pyLNRz1SLXiJyVNytKrFTI6vibmXHTvviowI3bSxyvC18J19d7Nn0oq+ngEaeCfLrdIgxrsIiny0+ehr0eCPImZyx4HbN0XVndnwUeeTRYs5CRKgQOu3uQh33W3ZoaeSjBZCBu4wxO1nkSoG7o7HVuzntuLgTSeSKu7jL2M3YTq4QuKPn4uMCEB5Z/SWipJo7spMrHRUdOScfFwBHBjgywJEBjgxwZAASueK9Mzmn8MgV74lnqebu4wKARa50ZNBzkUQ++thVPJs75TF3u+Mi442WRa64m4/GVn9Zp+zkjNCZb6408miHkIsejaXexY18J2eHzg7c+Fk4gJ/qBJR+Pnl2aoprRsIjN1eiRMoI3LTV5oz8p/beyNv9x6e29yl1ZIAjAxw52N6ZnHJ3cTfeyQBHBjgywJEBjgxwZIAjAxwZ4MgAR5ZblhdWJ8JQJ5usuwAAAABJRU5ErkJggg==;" vertex="1" parent="1">
          <mxGeometry x="1750.6100000000001" y="21.42" width="48.77" height="40" as="geometry" />
        </mxCell>
        <mxCell id="iyyLop5UdPf2UzQYBVcK-109" value="" style="shape=image;verticalLabelPosition=bottom;labelBackgroundColor=default;verticalAlign=top;aspect=fixed;imageAspect=0;image=data:image/png,iVBORw0KGgoAAAANSUhEUgAAAFkAAABJCAYAAABW3Yo0AAAAAXNSR0IArs4c6QAAAARnQU1BAACxjwv8YQUAAAAJcEhZcwAAEnQAABJ0Ad5mH3gAAAGsSURBVHhe7drRroIwEEVR8P//WW1iE0OglDhnz0TOevE+0XZbKzeyPt8Wk3p8Xk3IkQGODHBkgCMDHBngyABHBjgywJEBjgxwZIAjAxwZ4MgARwY4MqD0LyPrun7+Gqv+406pyLNRz1SLXiJyVNytKrFTI6vibmXHTvviowI3bSxyvC18J19d7Nn0oq+ngEaeCfLrdIgxrsIiny0+ehr0eCPImZyx4HbN0XVndnwUeeTRYs5CRKgQOu3uQh33W3ZoaeSjBZCBu4wxO1nkSoG7o7HVuzntuLgTSeSKu7jL2M3YTq4QuKPn4uMCEB5Z/SWipJo7spMrHRUdOScfFwBHBjgywJEBjgxwZAASueK9Mzmn8MgV74lnqebu4wKARa50ZNBzkUQ++thVPJs75TF3u+Mi442WRa64m4/GVn9Zp+zkjNCZb6408miHkIsejaXexY18J2eHzg7c+Fk4gJ/qBJR+Pnl2aoprRsIjN1eiRMoI3LTV5oz8p/beyNv9x6e29yl1ZIAjAxw52N6ZnHJ3cTfeyQBHBjgywJEBjgxwZIAjAxwZ4MgAR5ZblhdWJ8JQJ5usuwAAAABJRU5ErkJggg==;" vertex="1" parent="1">
          <mxGeometry x="1970.6100000000001" y="21.42" width="48.77" height="40" as="geometry" />
        </mxCell>
        <mxCell id="iyyLop5UdPf2UzQYBVcK-110" value="" style="shape=image;verticalLabelPosition=bottom;labelBackgroundColor=default;verticalAlign=top;aspect=fixed;imageAspect=0;image=data:image/png,iVBORw0KGgoAAAANSUhEUgAAAFkAAABJCAYAAABW3Yo0AAAAAXNSR0IArs4c6QAAAARnQU1BAACxjwv8YQUAAAAJcEhZcwAAEnQAABJ0Ad5mH3gAAAGsSURBVHhe7drRroIwEEVR8P//WW1iE0OglDhnz0TOevE+0XZbKzeyPt8Wk3p8Xk3IkQGODHBkgCMDHBngyABHBjgywJEBjgxwZIAjAxwZ4MgARwY4MqD0LyPrun7+Gqv+406pyLNRz1SLXiJyVNytKrFTI6vibmXHTvviowI3bSxyvC18J19d7Nn0oq+ngEaeCfLrdIgxrsIiny0+ehr0eCPImZyx4HbN0XVndnwUeeTRYs5CRKgQOu3uQh33W3ZoaeSjBZCBu4wxO1nkSoG7o7HVuzntuLgTSeSKu7jL2M3YTq4QuKPn4uMCEB5Z/SWipJo7spMrHRUdOScfFwBHBjgywJEBjgxwZAASueK9Mzmn8MgV74lnqebu4wKARa50ZNBzkUQ++thVPJs75TF3u+Mi442WRa64m4/GVn9Zp+zkjNCZb6408miHkIsejaXexY18J2eHzg7c+Fk4gJ/qBJR+Pnl2aoprRsIjN1eiRMoI3LTV5oz8p/beyNv9x6e29yl1ZIAjAxw52N6ZnHJ3cTfeyQBHBjgywJEBjgxwZIAjAxwZ4MgAR5ZblhdWJ8JQJ5usuwAAAABJRU5ErkJggg==;" vertex="1" parent="1">
          <mxGeometry x="2210.62" y="21.419999999999998" width="48.77" height="40" as="geometry" />
        </mxCell>
        <mxCell id="iyyLop5UdPf2UzQYBVcK-111" value="" style="shape=image;verticalLabelPosition=bottom;labelBackgroundColor=default;verticalAlign=top;aspect=fixed;imageAspect=0;image=data:image/png,iVBORw0KGgoAAAANSUhEUgAAAFkAAABJCAYAAABW3Yo0AAAAAXNSR0IArs4c6QAAAARnQU1BAACxjwv8YQUAAAAJcEhZcwAAEnQAABJ0Ad5mH3gAAAGsSURBVHhe7drRroIwEEVR8P//WW1iE0OglDhnz0TOevE+0XZbKzeyPt8Wk3p8Xk3IkQGODHBkgCMDHBngyABHBjgywJEBjgxwZIAjAxwZ4MgARwY4MqD0LyPrun7+Gqv+406pyLNRz1SLXiJyVNytKrFTI6vibmXHTvviowI3bSxyvC18J19d7Nn0oq+ngEaeCfLrdIgxrsIiny0+ehr0eCPImZyx4HbN0XVndnwUeeTRYs5CRKgQOu3uQh33W3ZoaeSjBZCBu4wxO1nkSoG7o7HVuzntuLgTSeSKu7jL2M3YTq4QuKPn4uMCEB5Z/SWipJo7spMrHRUdOScfFwBHBjgywJEBjgxwZAASueK9Mzmn8MgV74lnqebu4wKARa50ZNBzkUQ++thVPJs75TF3u+Mi442WRa64m4/GVn9Zp+zkjNCZb6408miHkIsejaXexY18J2eHzg7c+Fk4gJ/qBJR+Pnl2aoprRsIjN1eiRMoI3LTV5oz8p/beyNv9x6e29yl1ZIAjAxw52N6ZnHJ3cTfeyQBHBjgywJEBjgxwZIAjAxwZ4MgAR5ZblhdWJ8JQJ5usuwAAAABJRU5ErkJggg==;" vertex="1" parent="1">
          <mxGeometry x="2440.62" y="21.419999999999998" width="48.77" height="40" as="geometry" />
        </mxCell>
        <mxCell id="iyyLop5UdPf2UzQYBVcK-112" value="" style="shape=image;verticalLabelPosition=bottom;labelBackgroundColor=default;verticalAlign=top;aspect=fixed;imageAspect=0;image=data:image/png,iVBORw0KGgoAAAANSUhEUgAAAFkAAABJCAYAAABW3Yo0AAAAAXNSR0IArs4c6QAAAARnQU1BAACxjwv8YQUAAAAJcEhZcwAAEnQAABJ0Ad5mH3gAAAGsSURBVHhe7drRroIwEEVR8P//WW1iE0OglDhnz0TOevE+0XZbKzeyPt8Wk3p8Xk3IkQGODHBkgCMDHBngyABHBjgywJEBjgxwZIAjAxwZ4MgARwY4MqD0LyPrun7+Gqv+406pyLNRz1SLXiJyVNytKrFTI6vibmXHTvviowI3bSxyvC18J19d7Nn0oq+ngEaeCfLrdIgxrsIiny0+ehr0eCPImZyx4HbN0XVndnwUeeTRYs5CRKgQOu3uQh33W3ZoaeSjBZCBu4wxO1nkSoG7o7HVuzntuLgTSeSKu7jL2M3YTq4QuKPn4uMCEB5Z/SWipJo7spMrHRUdOScfFwBHBjgywJEBjgxwZAASueK9Mzmn8MgV74lnqebu4wKARa50ZNBzkUQ++thVPJs75TF3u+Mi442WRa64m4/GVn9Zp+zkjNCZb6408miHkIsejaXexY18J2eHzg7c+Fk4gJ/qBJR+Pnl2aoprRsIjN1eiRMoI3LTV5oz8p/beyNv9x6e29yl1ZIAjAxw52N6ZnHJ3cTfeyQBHBjgywJEBjgxwZIAjAxwZ4MgAR5ZblhdWJ8JQJ5usuwAAAABJRU5ErkJggg==;" vertex="1" parent="1">
          <mxGeometry x="2660.62" y="21.419999999999995" width="48.77" height="40" as="geometry" />
        </mxCell>
      </root>
    </mxGraphModel>
  </diagram>
</mxfile>
